<?xml version="1.0" encoding="UTF-8"?>
<svg id="Layer_1" data-name="Layer 1" xmlns="http://www.w3.org/2000/svg" viewBox="0 0 1431 670">
  <defs>
    <style>
      path, polygon, rect { fill: #fff; }
    </style>
  </defs>
  
  <path d="M80.71,506.73c.14.77.3,2.44-.12,2.3l-1.67-.56.13-5.48,2.84.1-1.18,3.64Z"/>
  <g>
    <g>
      <path d="M1011.58,247.85l-2.57,7.37-.03,108.61c-1.9.26-3.53-.69-4.57-2.11l-10.22-13.95-11.41-15.57-10.57-14.42-11.43-15.58-10.59-14.42-14.4-19.59-10.15-13.81-5.6-7.62c2.23.91,4,2.74,5.4,4.71l4.2,5.88,10.15,13.84,11.42,15.58,11,15,10.57,14.42,11.43,15.58,10.55,14.39,13.1,16.69.11-110.81,3.61-4.22Z"/>
      <path d="M1004.56,415.88l5.4,7.39c-2.87-1.14-4.39-3.56-6.17-6.01l-10.64-14.6-103.95-142.63c-2.88-3.95-3.33-8.39.81-11.12-.71,2.98-1.99,7.09-.27,9.46l96.41,132.3,11.07,15.16,7.35,10.06Z"/>
    </g>
    <path d="M1042.99,417.25c0,2.33-2.93,5.32-4.54,5.82,1.99-3.75,3.57-7.32,3.57-12.17l-.03-155.65-2.7-7.18,1.33-.1,2.39,5.26-.02,164.02Z"/>
    <g>
      <g>
        <path d="M1105.03,417.48c0,2.14,3.01,5.13,3.98,6.61-5.39-1.48-6.03-7.14-6.03-12.16l.02-87.82,2.78-4.6c.62-.11,2.01-.35,1.9-.33-1.74,2.75-2.72,4.9-2.71,7.8l.06,90.48Z"/>
        <path d="M1107.68,305.8l-2.12-.28-2.61-6.43.07-43.13c.22-3.93,1.51-8.35,6.17-8.94l-4.14,4.35-.09,46.69c0,2.77,1.02,5.03,2.73,7.74Z"/>
        <polygon points="1134.43 320.08 1130.93 318.06 1135.07 319.09 1135.61 319.82 1138.05 323.32 1138.01 418.73 1135.54 423.03 1134.19 422.89 1137 416.85 1137 325.16 1134.94 320.55 1134.43 320.08"/>
        <path d="M1134.98,304.87l1.99-4.97.08-45.78-3.07-6.35c-2.16-.04-2.39-.66.29-1.33l3.77,5.55-.02,50.08-3.04,2.81Z"/>
        <rect x="1110.5" y="424" width="21.5" height="1"/>
        <rect x="1110" y="307" width="20.5" height="1"/>
        <rect x="1111" y="317" width="18.5" height="1"/>
      </g>
      <g>
        <path d="M1269.03,296.64l-28.96,68.37-4.55,10.09c-.33.73-3.2,2.13-3.22,1.91l4.56-8.21,27.9-67.04,2.81-6.76,3.24,1.34,39.04,93.71h-1.48s-3.23-7.27-3.23-7.27l-36.11-86.13Z"/>
        <path d="M1355.02,408.7c2.14,4.97,4.31,10.82-1.92,14.77l3.23-7.49-5.79-13.75-56.09-132.48-2.7-6.44-3.26-7.82c-1.29-3.09-3.18-5.64-5.32-8.71,2.74.99,4.99,3.93,6.18,6.79l5.09,12.22,57.01,134.64,3.57,8.27Z"/>
        <path d="M1205.49,377.06c-5.07-1.95-6.42-7.58-4.16-12.72l3.37-7.66,16.41-38.58,21.47-50.46,2.66-6.33,2.97-7.12c.87-2.09,1.91-3.96,3.95-5.21l-15.27,35.92-18.79,44.2-15.53,36.45c-1.7,3.98-.1,8.17,3.13,10.66l.8.78h24.01s.55.94.55.94l-24.7.06-.88-.94Z"/>
        <rect x="1187.5" y="424" width="163.5" height="1"/>
        <path d="M1185.59,423.95c-3.33-1.08-4.83-4.75-5.7-7.77l7-17.3c.99-2.44,1.99-4.35,4.3-6.07l-4,9.5-2.98,7.08c-2.92,6.92-3.34,8.26,1.39,14.56Z"/>
        <path d="M1197.06,390.52l-5.13,1.4c1.08-2,3.43-2.37,5.13-1.4Z"/>
      </g>
    </g>
  </g>
  <path d="M1258.06,246.52l-5.13,1.4c1.08-2,3.43-2.37,5.13-1.4Z"/>
  <g>
    <path d="M418.05,531.89c0,1.24-1.78,3.34-2.59,3.28l.58-4.04-.18-26.89c-.18-.2-.05-.65.58-1.81.78,2.01,1.57,4.62,1.58,6.33l.03,23.14Z"/>
    <path d="M293.95,534.87l-2.04-1.7.21-29.69c2.5-.9,3.05-.23,1.91,1.26l-.07,30.12Z"/>
    <path d="M172.93,534.76l-1.9-2.11-.08-26.75c.13-.76.43-2.25.99-2.34l1.16-.2-.17,31.4Z"/>
    <rect x="297" y="509" width="2" height="26"/>
    <path d="M342.37,527.53l-2.84-7.21-3.69-7.32-4.74,11.18-.66,1.82c-.15.41-1.64-.13-1.47-.53l.74-1.79,3.79-9.14.8-1.93c.24-.58,1.72-.64,3.1-.75l2.54,6.15,4.06,9.84c.3,1.26-2.7,1.46-1.61-.31Z"/>
    <path d="M350.76,530.76c.23.54,1.77,2.49,1.29,2.79l-2.61,1.61.25-3.69-12.08-28.45c1.89.98,2.48,2.33,3.22,4.08l9.93,23.66Z"/>
    <path d="M405.33,518.04l-11.21-14.86,1.62-.25,10.45,14.19.47.65,2.48,3.65.5.4c.21,0,1.31-.15,1.31-.54l.02-2.16.12-16.19,2.79.37s-.82,1.88-.82,2.27l-.15,18.31-3.23.04c-.42,0-.73-1.1-.77-1.33l-.52-.55-2.54-3.4-.52-.59Z"/>
    <path d="M532.43,509.08l-4.09-5.17.85-1.52,3.86,5.71.58.85,2.46,3.49.46.57,8.1,9.98.5-19.98c.76.46,1.96,1.2,1.05.71l-.37,20.43c-1.77-.04-3.87-1.44-4.88-2.91l-5.01-7.32-.59-.86-2.5-3.44-.43-.54Z"/>
    <path d="M459.85,515.99c-3.57-.13-4.11,5.86-7.98,6.82l4.28-6.66c.73-1.13,3.52-2.28,4.74-2.24l.22,19.21c.71.9.3,1.92-.96,2.05l-.29-19.18Z"/>
    <path d="M133.23,515.91l-9.02-11.99c-.02-.24.95-1.3,1.19-.97l1.1,1.55,3.34,4.67,4.37,6.18.43.58,3.18,4.26c.46.62,2.37,1.72,3.08,1.94l.2-19.14c1.18.07,1.92.57,1.03.97l-.19,19.97-2.91.05-5.28-7.28-.51-.79Z"/>
    <path d="M324.38,526.14c-.19-2.05.09-4.36.69-5.71l3.17-7.16,4.34-9.78c.84-.15,2.23-.39,2.03-.35l-3.72,7.71-6.52,15.29Z"/>
    <path d="M550.97,535.01c-3.01.52-3.34-.63-1-1.48l.02-28.59c-.97-1.09-.59-2.08.99-1.96v32.03Z"/>
    <path d="M576.98,533.56c1.11,1.01.59,1.55-.96,1.33v-31.81c1.47-.15,2.09.28,1.02.98l-.06,29.49Z"/>
    <path d="M146.12,534.17l-.21-28.75-.99-1.95c-.2-.39,1.54-.36,2.06-.3l.05,29.38-.91,1.61Z"/>
    <path d="M465.12,534.17l-.21-28.75-.99-1.95c-.2-.39,1.54-.36,2.06-.3l.05,29.38-.91,1.61Z"/>
    <path d="M244.04,535.92c-1.45-2.69-2.11-4.52-2.11-6.8l.02-9.1,1.92-2.19.27,14.25-.1,3.84Z"/>
    <path d="M256.5,523.97l-7.49.12v8.76c0,.77-2.45,2.58-2.47,2.25l.44-6.14.42-5.83h9.63s.72.81.72.81l3.5,5.35.37.62,3.18,5.31c-2.54-1.33-3.37-2.92-3.95-4.6l-.51-.66-3.47-5.35-.38-.65Z"/>
    <path d="M581.99,534.94c-1.47.11-2.1-.33-1.05-1.02l.09-24.44.92-.55.04,26.02Z"/>
    <path d="M177.99,534.94c-1.47.11-2.1-.33-1.05-1.02l.09-24.44.92-.55.04,26.02Z"/>
    <rect x="522.84" y="523.98" width="2.42" height="11.04" transform="translate(-27.11 28.28) rotate(-3.01)"/>
    <path d="M267.53,535c0-.58.1-2.93-.27-3.51l-5.5-8.65.93-.93,6.06,9.4,1.21,2.23c.23.43-1.68,1.27-2.42,1.46Z"/>
    <path d="M529.94,533.09c0,.42-1.16,2.1-1.5,1.95s-1.58-.71-.87-.39l.61-8.68.14-1.97c.02-.34,1.6,1.04,1.6,1.38v7.7Z"/>
    <path d="M391.07,523.84l.12,11.73c-3.38-3.64-3.1-10.79-.12-11.73Z"/>
    <path d="M371.96,534.74c-.9.37-2.31.08-.96-.7l-.12-17.17c-.88-.31-.11-.79,1.09-.89v18.76Z"/>
    <path d="M366.93,533.89c1.24.73.65,1.19-.86,1.02l-.11-18.79c1.28.46,2.5.9,1.18.42l-.21,17.35Z"/>
    <path d="M126.27,514.98l-7.18-9.6c-.26-.35.37-2.16.49-2.58s.75.93.68,1.27l3.85,5.78,3.03,4.54.48.57,3.19,4.12,4.41,6.26.41.55,2.8,3.74,3.53,4.72c-.03.14-1.19,1-1.41.67l-1.05-1.53-4.71-6.84-.42-.6-3.18-4.13-4.41-6.26-.5-.67Z"/>
    <path d="M266.25,506.8c3.55,2.9,3.98,10.08,1.08,12.37l.16-5.12-1.25-7.25Z"/>
    <path d="M528.31,512.06l-4.63-6.47c-.3-.41-.66-1.66-.76-2.08s1.38-.96,1.53-.55l.8,2.09,3.81,6.35.57.58,3.2,4.12,4.39,6.26.42.56,7.74,10.26-1.59.44-7.04-9.93-.38-.63-3.17-4.12-4.43-6.24-.45-.61Z"/>
    <path d="M398.4,517.11l-.83-.68-7.04-10.38c1.99,1.15,3.37,2.5,4.34,3.94l4.32,6.39.45.59,3.2,4.18,4.33,6.24.43.52,3.94,4.93c.48.6.8,1.64.61,2.94l-5.47-7.04-.3-.69-3.19-4.11-4.38-6.32-.39-.51Z"/>
    <path d="M436.44,507.07l-1.43-1.99c-.25-.35.12-2.41.49-2.18l1.15.72.2,2.45c.01.17.66.77.76.91l2.56,3.38.42.57,2.56,3.45.44.53,4.43,5.27c1.19,1.41,2.22,3.36,2.48,5.49l-7.61-9.7-.56-.89-2.49-3.45-.43-.57-2.58-3.44-.4-.55Z"/>
    <path d="M264.24,512.96c-.09,1-.77,3.75-1.66,4.24-1.07.59-3.7.77-4.48.63,1.51-.87,3.62-2.03,4.19-2.96.67-1.08-.3-3.12-.94-4.89.6-.32,2.98,1.84,2.88,2.98Z"/>
    <path d="M443.27,508.1l-2.37-4.12,3.33,3.24.45.66,2.42,3.56.48.56,3.05,3.19,2.72-3.82,4.18-5.85,1.1-1.54c.23-.33,1.28.73,1.08,1.04l-8.07,10.78c-.9,1.08-4.27-1.38-4.64-2.7-.05-.17-.52-.92-.62-1.06l-2.54-3.41c-.3-.26-.48-.39-.56-.53Z"/>
    <path d="M371.8,503.22l.34,10.24-1.48.36.38-10.03c-1.53-.68.33-.87.77-.57Z"/>
    <path d="M440.8,524.22l.34,10.24-1.48.36.38-10.03c-1.53-.68.33-.87.77-.57Z"/>
    <path d="M436.18,524.28l-.2,11.49c-.96-4-.97-6.67-1.24-11.27.6-.09,3.05-.47,1.44-.22Z"/>
    <path d="M367.29,504.24l-.31,10.1c-1.21-2.68-1.11-8.28-.77-10.99.08-.39,1.1.45,1.09.88Z"/>
    <polygon points="120.63 534.93 118.83 533.7 119.85 523.41 120.63 534.93"/>
    <path d="M283.71,506.73c.14.77.3,2.44-.12,2.3l-1.67-.56.13-5.48,2.85.1-1.18,3.64Z"/>
    <path d="M509.02,506.82c-1.46,2.52-2.64,2.46-2.99,1.05l-.47-5.34c.89.81,1.65,1.75,3.46,4.29Z"/>
    <path d="M125.05,534.9c-1.13-.35-2.77-.85-1.23-.38l.24-10.08.8-.5.19,10.95Z"/>
    <path d="M395.92,524.94l.1,8.47-.75.63-.57-7.66-.75-2.03c-.15-.41,1.96.16,1.96.59Z"/>
    <path d="M505.48,535.16l.88-6.46,1.9,2.94c.43.67-.96,2.48-2.78,3.52Z"/>
    <path d="M163.44,502.77l-.86,6.55c-.74-1.15-1.63-2.84-1.76-3.83s1.89-2.54,2.62-2.73Z"/>
    <polygon points="81.05 515.37 80.67 522.51 78.18 517.68 81.05 515.37"/>
    <path d="M485.44,502.77l-.86,6.55c-.74-1.15-1.63-2.84-1.76-3.83s1.89-2.54,2.62-2.73Z"/>
    <path d="M99.48,522.16l.88-6.46,1.89,2.93c.43.67-.95,2.49-2.77,3.53Z"/>
    <polygon points="485.05 515.37 484.67 522.51 482.18 517.68 485.05 515.37"/>
    <path d="M504.37,522.64l-.33-6.7c2.44,1.21,3.47,4.39.33,6.7Z"/>
    <path d="M288.37,509.64l-.33-6.7c2.44,1.21,3.47,4.39.33,6.7Z"/>
    <polygon points="81.05 528.37 80.67 535.51 78.18 530.68 81.05 528.37"/>
    <path d="M307.37,509.64l-.33-6.7c2.44,1.21,3.47,4.39.33,6.7Z"/>
    <polygon points="485.05 528.37 484.67 535.51 482.18 530.68 485.05 528.37"/>
    <path d="M566.42,508.56c.89.37.14.06-.66-.28l-.75-3.72c-.16-.78,2.18-1.63,2.73-1.66l-1.33,5.66Z"/>
    <path d="M102.46,529.01c1.12,2.53,1.67,3.59,1.54,4.37s-2.02,1.61-2.72,1.79l.82-4.24c.15-.81.39-2.06.36-1.93Z"/>
    <path d="M243.42,508.56c.89.38.14.06-.66-.28l-.75-3.71c-.15-.75,2.18-1.64,2.73-1.67l-1.33,5.66Z"/>
    <polygon points="104.37 504.03 102.69 509.41 101.27 503.06 104.37 504.03"/>
    <path d="M227.33,508.47c-.31.06-2.12.41-1.74.34l-.32-4.88c-.59.47.92-.75,1.45-1.17l.62,5.7Z"/>
    <path d="M227.04,534.91l-3.06-.1,1.8-1.74c.42-.4.18-1.21-.16-3.6l1.31-.46.1,5.91Z"/>
    <path d="M321.59,534.95c.04.08-1.77-1.04-1.59-1.54l.94-2.59c.21-.58,2.2-1.93,1.93-1.56l-1.29,5.69Z"/>
    <path d="M169.33,508.47c-.31.06-2.12.41-1.74.34l-.32-4.88c-.59.47.92-.75,1.45-1.17l.62,5.7Z"/>
    <path d="M188.95,503.85l-2.06,5.72-.43-6.47c-.06-.02.98.3,2.49.75Z"/>
    <path d="M573.95,503.85l-2.06,5.72-.43-6.47c-.06-.02.98.3,2.49.75Z"/>
    <path d="M225.95,516.85l-2.06,5.72-.43-6.47c-.06-.02.98.3,2.49.75Z"/>
    <path d="M204.5,521.4c.19.02-1,1.15-1.09.72l-.51-2.32c-.19-.89.64-3.58,1.25-4.16l.34,5.75Z"/>
    <polygon points="592.46 503.52 591.54 509.24 590.29 503.15 592.46 503.52"/>
    <polygon points="204.73 503.17 203.41 509.17 202.75 503.45 204.73 503.17"/>
    <rect x="202.79" y="529.03" width="1.41" height="5.94" transform="translate(-73.19 34.13) rotate(-8.13)"/>
  </g>
  <g>
    <g>
      <path d="M922.68,395.79l.15,19.12c.03,3.42-3.1,7.33-5.72,9.3-2.32-.38-2.3-.78-.37-.91l4.3-6.26v-47.08s-5.09-6.74-5.09-6.74c-1.86.56-.09.03,1.35-.4l4.48,4.41.97,7.9-.05,14.65-.02,6.01Z"/>
      <path d="M890.18,422.13c-1.44-1.27-3.19-4.46-3.19-7l-.02-42.18c0-4.89,2.67-10.2,8.02-9.75-2.24,1.08-5.96,3.88-5.97,6.62l-.03,48.11,1.94,3.29c.1.16.48.62.65.72l3.47,1.93-3.82-.68c-.17-.03-.91-.93-1.04-1.05Z"/>
    </g>
    <g>
      <g>
        <path d="M290.05,254.94c0-4,3.13-7.6,5.71-8.02l-3.79,6.2.03,110.66-3.53-.08-7.27-9.91-11.43-15.59-10.57-14.42-11.43-15.58-10.57-14.42-11.43-15.58-10.58-14.43-12.16-16.58,1.53-.26,11.63,15.85,10.58,14.41,11.43,15.58,10.59,14.42,13.97,19.01,11.44,15.58,9.28,12.64,6.54,8.31v-7.85s.02-99.95.02-99.95Z"/>
        <path d="M325.99,415.73c0,3.28-5.11,9.6-7.66,7.97,1.59-.86,5.63-3.68,5.63-5.89l.05-162.75c0-3.2-2.15-5.68-3.85-8.08,2.54.36,5.82,3.9,5.82,7.34v161.41Z"/>
        <path d="M288.86,418.21l4.09,5.14c-3.11-1.65-4.76-3.63-6.93-6.62l-113.21-155.32c-2.01-2.76-3.04-4.7-2.98-7.89.05-2.61,2.14-5.93,4.95-6.67l-3.71,6.32c-.83,1.41,1.24,5.18,2.33,6.68l115.46,158.37Z"/>
      </g>
      <g>
        <path d="M202.36,422.38l-2.03.44c1.7-2.75,2.69-5,2.69-7.72v-43.21c0-2.54-1.09-5.23-2.57-7.5-.67.02,1.19-.46,1.43-.1l3.14,4.74-.02,48.88-2.63,4.46Z"/>
        <path d="M172.33,419.58l2.73,3.53c-4.13-.73-5.09-4.46-5.09-8.06l.04-45.12c0-2.53,2.68-5.73,4.62-6.09l-3.68,7.25.06,42.91,1.32,5.59Z"/>
      </g>
      <g>
        <g>
          <path d="M109.98,415.48c0,3.98-3,7.91-5.74,8.66l3.77-6.24v-90.89c-.07-2.98-.93-5-2.68-7.83-.16-.03,1.27.21,2.02.33l2.66,5.62-.03,90.35Z"/>
          <path d="M78.75,423.34c-4.84-3.41-4.69-8.47-4.75-13.41l-.02-81.87,1.54-5.73c.37-1.38,3.13-3.47,4.49-4.55,2.07.4,2.25.88.16.94l-4.19,5.39.03,92.72,2.74,6.51Z"/>
          <rect x="81.5" y="424" width="21.5" height="1"/>
        </g>
        <g>
          <path d="M107.38,305.26c-.19.39-2.12.67-2.11.57,1.53-2.24,2.79-4.82,2.79-7.76l-.1-46.69-3.96-4.29c3,.17,5.92,3.94,5.93,7.09l.11,45.69-2.66,5.38Z"/>
          <path d="M77.52,304.58l-1.82-.69c-1.03-3.65-1.78-7.79-1.77-11.88l.12-36.1c0-1.83,1.7-5.45,2.52-7.33.78-.15,2.31-.46,2.02-.4-1.53,2.96-2.63,5.81-2.63,8.71l.03,40.21c0,2.1.63,3.92,1.53,7.47Z"/>
          <rect x="82" y="307" width="20.5" height="1"/>
        </g>
        <rect x="83.5" y="317" width="17.5" height="1"/>
      </g>
    </g>
    <g>
      <path d="M608.98,415.48c0,3.98-3,7.91-5.74,8.66l3.77-6.24v-90.89c-.08-2.98-.93-5-2.68-7.83-.17-.03,1.28.21,2.02.33l2.66,5.62-.03,90.35Z"/>
      <path d="M577.75,423.34c-4.84-3.41-4.69-8.47-4.75-13.41l-.02-81.87,1.55-5.74c.37-1.37,3.13-3.46,4.49-4.54,2.06.39,2.25.88.16.94l-4.18,5.39v92.72s2.75,6.51,2.75,6.51Z"/>
      <path d="M606.38,305.26c-.19.39-2.13.68-2.11.57,1.53-2.24,2.79-4.82,2.79-7.76l-.1-46.69-3.96-4.29c3,.17,5.92,3.93,5.93,7.09l.11,45.69-2.65,5.38Z"/>
      <path d="M576.53,304.58l-1.82-.68c-1.04-3.69-1.8-7.76-1.78-11.93l.14-34.85c.01-3.52,2.29-9.78,4.54-9.12-1.31,2.69-2.64,5.81-2.64,8.89l.03,40.22c0,2.1.63,3.92,1.53,7.47Z"/>
      <rect x="580.5" y="424" width="21.5" height="1"/>
      <rect x="581" y="307" width="20.5" height="1"/>
      <rect x="582.5" y="317" width="17.5" height="1"/>
    </g>
    <polygon points="436.06 246.81 429.49 247.06 428.94 246.19 435.51 245.94 436.06 246.81"/>
    <polygon points="736.06 246.79 730.49 247.06 729.94 246.21 735.51 245.94 736.06 246.79"/>
    <g>
      <path d="M389.29,323.62l6.58,6.47c1.44,1.42,3.01,2.65,4.05,4.13-24.78-13.04-26.97-46.69-10.56-66.88l8.03-7.85c4.4-4.3,9.51-7.48,15.74-8.46l-9.72,5.48-4.57,3.33-8.96,9.09c-10.7,10.86-13.2,42.28-.59,54.69Z"/>
      <path d="M514.27,401.85l3.62-5.84,3.82-11.21,1.13-6.87v-9.81s-1.65-8.27-1.65-8.27c-1.15-5.77-4.9-10.11-8.22-14.78l-3.02-4.23c5.04,2.42,11.96,13.86,13.01,19.29l1.49,7.69c1.89,9.79-3.03,31.05-12.27,38.26.33-1.31,1.09-2.62,2.09-4.22Z"/>
      <path d="M437.43,278.94c.59-1.26,2.57-4.3,2.57-5.9l-.02-20.89-1.94-3.93c2.78,1.04,4.06,4.41,4.05,7.64l-.1,17.31c-.01,2.12-2.03,5.22-4.55,5.77Z"/>
      <path d="M457.99,417.2c0,1.43,1.12,4.18,1.83,6.43.13.74-2.8-1.88-2.8-3.04l-.04-23.13,5.09-4.82c2.01.55,2.23,1.12.09,1.16-2.28,2.06-4.21,5.19-4.2,8.01l.04,15.39Z"/>
      <path d="M490.67,372.63c.85,3.46-2.79,14.5-7.88,14.35,6.12-5.52,8.26-12.97,4.37-20.68l2.01.22,1.5,6.1Z"/>
      <path d="M416.45,305.08c-3.83-1.41-5.13-5.33-4.04-9.59.98-3.86,2.08-8.62,6.68-9.51-4.22,4.14-6.02,10.29-4.86,15.61l2.39,2.66.96.67,6.34,3.89c-2.05.36-4.94-1.1-6.64-2.85l-.84-.87Z"/>
      <rect x="381" y="360" width="22.5" height="1"/>
      <path d="M489.38,329.28l-4.63-2.18,5.28,1.06.57.65c2.68.68,5.32,1.77,7.57,4.28l-8.22-3.43-.58-.38Z"/>
      <path d="M507.88,410c-2.13,3.65-10.73,9.26-15.87,9.96l8.01-4.96,7.86-5Z"/>
      <g>
        <path d="M376.52,375.02c.83,14.98,9.41,25.71,19.57,36.18-13.42-8.41-19.16-23.63-21.69-38.77-.82-4.89-.31-10.04,5.89-11.56l-4.31,4.62.53,9.53Z"/>
        <path d="M438.19,423.88l1.76-3.94.08-23.61-4.41-3.97c-1.19.3-.04.01,1.83-.46,1,.87,4.5,4.35,4.5,6.15l.04,20.91c0,1.49-2.69,4.41-3.79,4.93Z"/>
        <path d="M419.3,386.23l-3.7-3.02c-2.99-2.45-5.14-6.67-6.13-10.51l-2.9-11.15c5.48,4.27,3.69,13.75,6.77,17.01l6.51,6.89.65.51,3.58,1.89-3.85-.65c-.18-.03-.82-.83-.92-.96Z"/>
        <rect x="406.71" y="411.9" width="1.79" height="12.3" transform="translate(-148.6 595.66) rotate(-63.43)"/>
        <polygon points="436.06 425.81 429.49 426.06 428.94 425.19 435.51 424.94 436.06 425.81"/>
      </g>
      <path d="M508.42,340.22l-3.59-2.97c1.85-.35,3.21.62,3.59,2.97Z"/>
      <polygon points="415.88 341.09 414.18 342.48 410.96 340.02 415.88 341.09"/>
      <g>
        <path d="M506.42,268.08l-4.52-5.2c2.6.74,4.29,2.62,5.23,4.45l.51.59,4.19,5.25c4.91,6.16,10.26,24.15,7.91,28.7l-2.14,4.14-1.41-.13,2.86-6.1-1.36-7.62-1.93-8.01c-1.37-5.72-5.28-10.5-8.61-15.22l-.74-.85Z"/>
        <path d="M457.92,272.03c0,2.65,2.24,5.78,4.03,8.02-3.66-.49-5.1-4.45-5.06-7.93l.24-19.21c.03-2.15,3.73-5.81,5.69-5.9-2.27,2.76-4.84,6.2-4.85,9.74l-.05,15.28Z"/>
        <path d="M489.52,307.21c-2.67-.99-4.35-3.56-4.95-6.82-.94-5.14-3.52-9.3-6.27-13.58,5.63,2.96,6.66,8.52,8.15,13.88l3.07,6.52Z"/>
        <rect x="488.31" y="249.1" width="1.79" height="10.51" transform="translate(42.93 578.16) rotate(-63.43)"/>
        <path d="M500.42,262.22l-3.59-2.97c1.85-.35,3.21.62,3.59,2.97Z"/>
      </g>
      <path d="M482.69,362.94l-3.73-1.53c1.5-.71,3.12-.24,3.73,1.53Z"/>
      <polygon points="475.06 425.76 470.5 426.06 469.94 425.24 474.5 424.94 475.06 425.76"/>
      <polygon points="468.06 426.76 463.5 427.06 462.94 426.24 467.5 425.94 468.06 426.76"/>
    </g>
    <g>
      <g>
        <path d="M803.18,409.85l6.5-6.24,6.69-7.18,4.6-5.65,2.76-4.08c6.93-10.25,11.3-21.51,12.99-33.93l1.06-7.76.24-15.18c.03-1.93-2.7-5.12-3.81-6.82,6.24,1.48,6.37,12.16,5.16,21.08l-1.22,9.03c-1.39,10.28-4.26,20.53-9.91,29.06l-6.78,10.23-4.05,5.03-8.4,8.59-5.84,3.83Z"/>
        <path d="M747.31,355.06c-2.07-.8-5.29-4.15-5.3-6.87l-.02-18.41c0-2.83,4.91-8.76,7.76-7.59-1.94,1.02-5.68,4-5.7,6.53l-.12,21.31,3.67,4.25.88.71,54.82.03c-3.14,9.43-9.67,20.76-17.18,26.07l-6.98,4.94c-.75.53-3.19.79-4.12.67,12.42-6.15,21.92-16.88,26.22-30.69l-52.85-.03-1.08-.92Z"/>
        <path d="M761.26,425.13c-1.68-.61-4.24-3.69-4.25-5.91l-.06-20.37c0-2.95,1.93-6.67,4.93-6.76-.79,1.2-3.82,4.4-3.82,6v19.82c0,1.86,2.22,5.26,3.55,6.3l.87.67,6.66.67-6.57.44c-.18.01-1.28-.82-1.31-.85Z"/>
        <rect x="791.84" y="414.73" width="5.32" height="1.54" transform="translate(-100.55 467.98) rotate(-30.96)"/>
      </g>
      <g>
        <path d="M671.6,381.87l7.84,11.69,13.52,13.96-.88.88-13.6-13.82c-8.14-8.28-16.54-28.12-18.37-40.68l-1-6.83v-22.15s1-6.83,1-6.83c1.85-12.65,10.11-32.12,18.37-40.66l13-13.45,1.49.32-13.53,14.14-7.3,10.7c-3.33,4.88-5.65,10.22-7.1,15.96l-3.24,12.8-1.13,10.15c-.58,5.18-.49,9.85-.06,15.02l.5,5.96,2.81,14.08c1.31,6.54,3.82,13.01,7.68,18.77Z"/>
        <path d="M710.24,379.27c-1.22-.95-3.22-2.58-4.27-4.18l-7.48-11.48c-3.64-5.59-5.04-12.84-5.44-19.48l-.54-9.02.46-7.15c.47-7.25,3.67-17.56,7.49-23.35l3.65-5.54c1.98-3,4.48-5.67,7.96-7.3l-5.24,6.19-3.39,4.4-5.97,12.11-2.19,8.67-1.11,6.84v12.79c1.76,13.65,6.9,25.77,16.57,35.51l.96.53c1.56,1.07,3.12,2.55,4.15,4.42l-4.75-3.33-.88-.63Z"/>
        <path d="M729.01,425.55l6.74-.93,4.3-4.03-.15-23.32-.5-3.33c.88.75,2.68,3.57,2.66,5.1l-.19,18.93c-.02,2.34-2.4,5.65-4.09,6.73-2.13,1.36-6.65,1.64-8.77.86Z"/>
        <path d="M739.29,278.18l.71-3.47-.14-23.19-1.71-3.38c2.03,1.06,3.79,4.35,3.81,6.72l.11,17.41c.01,1.84-1.36,4.53-2.79,5.91Z"/>
        <rect x="707.11" y="412.5" width="1.79" height="10.51" transform="translate(17.73 864.18) rotate(-63.43)"/>
        <path d="M697.07,261.16c1.19-1.79,2.87-3.11,4.75-4.38,3.14-1.76,5.76-3.33,9.31-3.73l-14.06,8.11Z"/>
        <rect x="715.84" y="286.73" width="5.32" height="1.54" transform="translate(-45.53 410.64) rotate(-30.96)"/>
        <path d="M697.42,412.22l-3.59-2.97c1.85-.35,3.21.62,3.59,2.97Z"/>
        <path d="M730.04,282.33l-3.29,1.73c-1.65-.17-2-.62-.36-1.32l3.66-.41Z"/>
        <path d="M738.14,278.71c-.55,1.09-1.16,2.35-1.73,2.27l-2.63-.4,4.36-1.87Z"/>
      </g>
      <g>
        <path d="M815.31,273.92l-6.35-6.74c.83.05,2.92.82,3.39,1.39l3.55,4.35.85,1.03,5.11,6.11,6.36,9.88c1.78,2.76,3.69,6.55,3.73,9.98.05,4.05-4.32,7.97-8.06,7.9l-22.02-.39,21.33-.53c2.28-.06,5.47-2.43,6.19-4.29,2.85-7.38-6.97-19.13-13.27-27.73l-.82-.98Z"/>
        <path d="M757.97,272.69c0,2.19,2.72,5.72,3.76,7.22-.94.34-4.64-2.49-4.7-4.08l-.04-22.93c0-2.1,2.16-5.2,3.79-5.96,1.84-.86,5.57-1.01,7.26-.61l-5.85,1.26c-2.04.44-4.15,5.17-4.16,7.65l-.05,17.46Z"/>
        <path d="M793.9,298.36c1.08,1.06,2.42,3.73,3.2,5.75l-4-4.21-9.01-9.47.81-.88,9,8.81Z"/>
        <rect x="804.79" y="261.17" width="1.41" height="5.66" transform="translate(49.25 646.9) rotate(-45)"/>
        <path d="M797.09,257.91c-2.22-.31-3.86-1.22-5.19-2.78,2.24.24,3.9,1.16,5.19,2.78Z"/>
        <polygon points="789.88 253.09 788.18 254.48 784.96 252.02 789.88 253.09"/>
        <path d="M778.69,286.94l-3.73-1.53c1.5-.71,3.12-.24,3.73,1.53Z"/>
      </g>
      <path d="M737.69,392.94l-3.73-1.53c1.5-.71,3.12-.24,3.73,1.53Z"/>
    </g>
  </g>
</svg>